<svg width="49" height="48" viewBox="0 0 49 48" fill="none" xmlns="http://www.w3.org/2000/svg">
<g clip-path="url(#clip0)">
<path d="M38.53 22.85C38.1047 22.8446 37.6946 23.0078 37.3891 23.3038C37.0837 23.5999 36.9079 24.0047 36.9 24.43C36.9012 24.6409 36.9447 24.8495 37.0278 25.0433C37.1109 25.2372 37.232 25.4124 37.3839 25.5588C37.5358 25.7051 37.7155 25.8195 37.9123 25.8953C38.1092 25.9711 38.3192 26.0067 38.53 26C38.7399 26.0081 38.9492 25.9737 39.1454 25.8989C39.3417 25.8242 39.5208 25.7105 39.6721 25.5649C39.8234 25.4192 39.9437 25.2445 40.0258 25.0512C40.1079 24.8579 40.1502 24.65 40.15 24.44C40.1447 24.0147 39.9714 23.6088 39.6679 23.3109C39.3644 23.013 38.9553 22.8473 38.53 22.85ZM11.66 14.85C12.0979 14.852 12.5266 14.7238 12.8916 14.4817C13.2565 14.2396 13.5413 13.8946 13.7098 13.4904C13.8783 13.0861 13.923 12.6409 13.838 12.2113C13.753 11.7817 13.5424 11.387 13.2327 11.0773C12.923 10.7676 12.5283 10.557 12.0987 10.472C11.6691 10.387 11.2239 10.4317 10.8196 10.6002C10.4154 10.7687 10.0704 11.0535 9.82828 11.4184C9.58621 11.7834 9.45802 12.2121 9.46 12.65C9.46527 13.23 9.69938 13.7845 10.1114 14.1927C10.5234 14.601 11.08 14.83 11.66 14.83V14.85ZM21 23.51C20.5471 23.51 20.1043 23.6443 19.7277 23.8959C19.3512 24.1476 19.0576 24.5052 18.8843 24.9237C18.711 25.3421 18.6656 25.8025 18.754 26.2468C18.8424 26.691 19.0605 27.099 19.3807 27.4193C19.701 27.7395 20.109 27.9576 20.5532 28.046C20.9975 28.1344 21.4579 28.089 21.8763 27.9157C22.2948 27.7424 22.6524 27.4488 22.9041 27.0723C23.1557 26.6957 23.29 26.2529 23.29 25.8C23.2874 25.1935 23.0453 24.6125 22.6164 24.1836C22.1875 23.7547 21.6065 23.5126 21 23.51ZM45.65 0H3C2.20435 0 1.44129 0.31607 0.87868 0.87868C0.31607 1.44129 0 2.20435 0 3L0 33.7C0 34.4957 0.31607 35.2587 0.87868 35.8213C1.44129 36.3839 2.20435 36.7 3 36.7H9.57V44.6L17.17 37L17.46 36.68H45.65C46.4457 36.68 47.2087 36.3639 47.7713 35.8013C48.3339 35.2387 48.65 34.4757 48.65 33.68V3C48.65 2.20435 48.3339 1.44129 47.7713 0.87868C47.2087 0.31607 46.4457 0 45.65 0V0ZM29.1 3.9H32.19V11.09L35.1 7.35H38.77L34.87 11.89L38.65 17.68H35.15L32.23 12.68V17.68H29.1V3.9ZM8 8.86C8.80118 8.05455 9.84451 7.53424 10.9699 7.37889C12.0953 7.22354 13.2406 7.44173 14.23 8V7.56H17.13V17.72H14.23V17C13.4497 17.4538 12.5627 17.692 11.66 17.69H11.46H11.21H11.1C10.9752 17.6806 10.8514 17.6605 10.73 17.63H10.58L10.26 17.55L10.09 17.49L9.8 17.39L9.61 17.32L9.37 17.2L9.17 17.1L8.94 17L8.75 16.87L8.55 16.72C8.48264 16.6791 8.41906 16.6322 8.36 16.58L8.18 16.42L8 16.2L7.83 16L7.67 15.82C7.6178 15.7609 7.57094 15.6974 7.53 15.63L7.38 15.43C7.33329 15.369 7.28989 15.3056 7.25 15.24L7.12 15L7.02 14.8L6.9 14.56C6.9 14.49 6.85 14.43 6.83 14.37C6.81 14.31 6.76 14.18 6.73 14.08L6.67 13.91C6.67 13.8 6.67 13.7 6.59 13.59C6.58512 13.5401 6.58512 13.4899 6.59 13.44C6.55951 13.3186 6.53944 13.1948 6.53 13.07C6.53 13.07 6.53 13 6.53 12.96C6.52479 12.8767 6.52479 12.7933 6.53 12.71C6.53 12.64 6.53 12.58 6.53 12.51C6.53 12.44 6.53 12.35 6.53 12.28C6.57644 10.9966 7.10072 9.77684 8 8.86ZM10.3 27.48C10.515 27.6959 10.7706 27.8671 11.0521 27.9838C11.3335 28.1006 11.6353 28.1604 11.94 28.16C12.4777 28.1573 12.9988 27.9742 13.42 27.64L15.64 29.86C14.63 30.7856 13.31 31.2994 11.94 31.3H11.72H11.47H11.35L11 31.21H10.84L10.5 31.12L10.28 31L9.98 30.89L9.78 30.81L9.52 30.69L9.31 30.58L9.08 30.44L8.87 30.31L8.66 30.16L8.46 30C8.39208 29.9487 8.32853 29.8918 8.27 29.83L8.08 29.66L7.91 29.47L7.74 29.28L7.58 29.08L7.43 28.87L7.29 28.66L7.16 28.42C7.11745 28.3567 7.08064 28.2898 7.05 28.22C7.05 28.13 6.96 28.04 6.93 27.95C6.89734 27.8859 6.87057 27.8189 6.85 27.75C6.80734 27.6557 6.7706 27.5589 6.74 27.46C6.73547 27.3967 6.73547 27.3333 6.74 27.27C6.68616 27.1839 6.63934 27.0936 6.6 27V26.85L6.54 26.46C6.54492 26.4202 6.54492 26.3798 6.54 26.34C6.53466 26.2534 6.53466 26.1666 6.54 26.08C6.54 26.01 6.54 25.94 6.54 25.86C6.54 25.78 6.54 25.7 6.54 25.62C6.57721 24.264 7.12342 22.9717 8.07 22C9.06889 21.0035 10.4142 20.4315 11.8249 20.4036C13.2355 20.3756 14.6024 20.8939 15.64 21.85L13.42 24C12.9565 23.629 12.3689 23.449 11.7771 23.4966C11.1854 23.5442 10.6341 23.8159 10.2359 24.2562C9.8377 24.6966 9.62259 25.2723 9.6345 25.8658C9.64642 26.4594 9.88445 27.026 10.3 27.45V27.48ZM21 31.08C19.9553 31.082 18.9335 30.774 18.0639 30.195C17.1943 29.6161 16.516 28.7921 16.1148 27.8275C15.7136 26.8629 15.6076 25.8009 15.8102 24.7761C16.0128 23.7512 16.5149 22.8094 17.2529 22.07C17.991 21.3306 18.9317 20.8267 19.9562 20.6222C20.9807 20.4177 22.0429 20.5216 23.0083 20.921C23.9736 21.3203 24.7988 21.997 25.3795 22.8656C25.9601 23.7341 26.27 24.7553 26.27 25.8C26.27 27.1986 25.7151 28.5401 24.7271 29.53C23.739 30.5199 22.3986 31.0774 21 31.08ZM23.45 18.08C21.07 18.08 19.38 16.76 19.15 14.66H22.29C22.2999 14.8057 22.3392 14.9478 22.4055 15.0779C22.4719 15.2079 22.564 15.3232 22.6761 15.4166C22.7883 15.5101 22.9182 15.5799 23.0581 15.6217C23.198 15.6635 23.3449 15.6766 23.49 15.66C24.04 15.66 24.59 15.34 24.59 14.86C24.59 14.38 24.23 13.98 22.65 13.5C19.99 12.7 19.28 11.67 19.28 10.5C19.28 8.5 21.28 7.13 23.37 7.13C25.66 7.13 27.28 8.36 27.43 10.39H24.3C24.3 9.8 23.84 9.61 23.3 9.61C22.76 9.61 22.38 9.91 22.38 10.3C22.38 10.86 22.9 11.14 24.38 11.51C26.89 12.16 27.71 13.15 27.71 14.66C27.72 16.68 25.82 18 23.42 18L23.45 18.08ZM34.09 31.1H27.81V28.58H29.71V24.69C29.026 25.0518 28.2638 25.2406 27.49 25.24H27.3V22.74H27.49C27.9923 22.7507 28.4783 22.5621 28.8419 22.2155C29.2054 21.8688 29.4169 21.3922 29.43 20.89C29.4304 20.7347 29.4102 20.58 29.37 20.43H32.66V28.57H34.09V31.1ZM42 27.91L39.85 31.1H36.42L38.25 28.6C38.0623 28.658 37.8664 28.685 37.67 28.68C37.1575 28.6711 36.6519 28.5599 36.1829 28.3529C35.7139 28.146 35.2909 27.8475 34.9388 27.4749C34.5867 27.1023 34.3126 26.6632 34.1325 26.1832C33.9524 25.7033 33.8699 25.1922 33.89 24.68C33.8815 24.0821 33.9946 23.4888 34.2225 22.936C34.4505 22.3832 34.7884 21.8825 35.2159 21.4644C35.6433 21.0463 36.1514 20.7195 36.7091 20.5039C37.2667 20.2882 37.8625 20.1882 38.46 20.21C40.88 20.21 43.16 21.67 43.16 24.6C43.1322 25.7981 42.7262 26.9567 42 27.91Z" fill="#006FAB"/>
<path d="M33.15 39.2C32.4057 39.2 31.678 39.4203 31.0587 39.8333C30.4394 40.2462 29.9561 40.8333 29.6699 41.5204C29.3837 42.2075 29.3074 42.964 29.4504 43.6945C29.5935 44.425 29.9495 45.0967 30.4738 45.6252C30.998 46.1536 31.667 46.515 32.3963 46.6638C33.1256 46.8127 33.8827 46.7423 34.5721 46.4615C35.2614 46.1808 35.8523 45.7022 36.2701 45.0862C36.688 44.4702 36.9141 43.7443 36.92 43C36.924 42.5023 36.8294 42.0089 36.6417 41.548C36.454 41.0872 36.1769 40.668 35.8265 40.3147C35.476 39.9615 35.0591 39.6811 34.5997 39.4898C34.1403 39.2984 33.6476 39.1999 33.15 39.2ZM33.15 44.5999C32.8235 44.6018 32.5039 44.5063 32.2321 44.3254C31.9603 44.1446 31.7487 43.8868 31.6242 43.5849C31.4998 43.2831 31.4683 42.951 31.5338 42.6312C31.5993 42.3113 31.7587 42.0183 31.9917 41.7896C32.2246 41.5609 32.5206 41.407 32.8416 41.3475C33.1626 41.2879 33.494 41.3256 33.7935 41.4556C34.093 41.5856 34.3468 41.802 34.5226 42.0771C34.6983 42.3523 34.788 42.6736 34.78 43C34.7696 43.4262 34.5936 43.8317 34.2893 44.1304C33.985 44.429 33.5764 44.5975 33.15 44.5999Z" fill="#006FAB"/>
<path d="M20.3 46.67C21.0235 46.67 21.61 46.0835 21.61 45.3601C21.61 44.6366 21.0235 44.05 20.3 44.05C19.5765 44.05 18.99 44.6366 18.99 45.3601C18.99 46.0835 19.5765 46.67 20.3 46.67Z" fill="#006FAB"/>
<path d="M26.48 44.74C26.2575 44.7419 26.0369 44.6995 25.8309 44.6154C25.6249 44.5313 25.4376 44.4071 25.28 44.25C24.968 43.9323 24.7922 43.5054 24.79 43.06C24.7878 42.7391 24.8769 42.4242 25.0471 42.1521C25.2172 41.88 25.4613 41.662 25.7508 41.5235C26.0403 41.385 26.3633 41.3319 26.6819 41.3702C27.0005 41.4086 27.3016 41.5368 27.55 41.74L29.16 40.13C28.5989 39.6313 27.9088 39.3006 27.1686 39.1757C26.4284 39.0507 25.6679 39.1366 24.9742 39.4235C24.2805 39.7103 23.6815 40.1866 23.2458 40.7979C22.81 41.4091 22.555 42.1307 22.51 42.88C22.5051 42.9399 22.5051 43.0001 22.51 43.06C22.5051 43.1099 22.5051 43.1601 22.51 43.21C22.5046 43.2732 22.5046 43.3368 22.51 43.4V43.49C22.5053 43.5833 22.5053 43.6767 22.51 43.77C22.5044 43.8065 22.5044 43.8436 22.51 43.88C22.5241 43.9646 22.5442 44.0482 22.57 44.13C22.5657 44.1732 22.5657 44.2168 22.57 44.26C22.57 44.34 22.62 44.41 22.64 44.48L22.7 44.62L22.79 44.81C22.79 44.81 22.79 44.92 22.87 44.96L22.97 45.14C22.9998 45.1923 23.0333 45.2424 23.07 45.29L23.18 45.44C23.2142 45.4886 23.251 45.5353 23.29 45.58C23.328 45.6314 23.3716 45.6783 23.42 45.72L23.54 45.86L23.68 45.99L23.82 46.11L23.96 46.22C24.0093 46.2623 24.0629 46.2992 24.12 46.33C24.1643 46.3712 24.215 46.405 24.27 46.43L24.44 46.53L24.59 46.61L24.78 46.7L24.92 46.76L25.14 46.83H25.27C25.3504 46.8607 25.4345 46.8808 25.52 46.89H25.63L26 47H26.44C27.4261 47.0084 28.3805 46.6523 29.12 46L27.5 44.38C27.2098 44.6105 26.8507 44.7373 26.48 44.74Z" fill="#006FAB"/>
<path d="M45.48 39.29C45.0906 39.2827 44.7053 39.3699 44.357 39.544C44.0087 39.7182 43.7078 39.9742 43.48 40.29C43.2951 40.012 43.0514 39.7779 42.7661 39.6044C42.4808 39.4309 42.1608 39.3222 41.8289 39.2859C41.4969 39.2497 41.1611 39.2868 40.8451 39.3946C40.529 39.5025 40.2405 39.6784 40 39.91V39.51H38V46.81H40.19V42.58C40.19 41.5 40.72 41.37 41.11 41.37C41.5 41.37 41.91 41.49 41.91 42.5V46.81H44.1V42.49C44.1 41.72 44.38 41.37 45 41.37C45.62 41.37 45.82 41.58 45.82 42.58V46.81H48V42.08C48 40.31 47.07 39.29 45.48 39.29Z" fill="#006FAB"/>
</g>
<defs>
<clipPath id="clip0">
<rect width="48.64" height="47.02" fill="white"/>
</clipPath>
</defs>
</svg>
