<svg xmlns="http://www.w3.org/2000/svg" viewBox="0 0 238.29 90.61"><defs><style>.cls-1{font-size:20px;font-family:PTSans-Bold, PT Sans;font-weight:700;}.cls-1,.cls-9{fill:#fff;}.cls-2{letter-spacing:-0.01em;}.cls-3{letter-spacing:-0.05em;}.cls-4{letter-spacing:-0.07em;}.cls-5{letter-spacing:0em;}.cls-6{letter-spacing:0em;}.cls-7{letter-spacing:-0.06em;}.cls-8{letter-spacing:-0.07em;}.cls-10{fill:#a7cce0;}</style></defs><title>Asset 1</title><g id="Layer_2" data-name="Layer 2"><g id="Layer_1-2" data-name="Layer 1"><text class="cls-1" transform="translate(44.17 85.15)"><tspan class="cls-2">we’re in this together.</tspan></text><path class="cls-9" d="M16.5,86.43V64.7H11.25C5.05,64.7,0,59.36,0,52.79V11.91C0,5.34,5.05,0,11.25,0H227c6.21,0,11.26,5.34,11.26,11.91V52.79c0,6.57-5,11.91-11.26,11.91H36.44l-.11.12ZM11.25,5C7.82,5,5,8.11,5,11.91V52.79c0,3.81,2.8,6.9,6.23,6.9H21.52V73.55l12.6-13.86H227c3.44,0,6.24-3.09,6.24-6.9V11.91c0-3.8-2.8-6.89-6.24-6.89Z"/><path class="cls-9" d="M64.92,29.21c0-1.73-1.33-2.27-2.82-2.27s-2.66.87-2.66,2c0,1.63,1.5,2.44,5.76,3.52,7.3,1.89,9.68,4.76,9.68,9.14,0,6.28-5.53,10.23-12.5,10.23S50.54,48,49.87,41.87H59c.28,1.9,1.66,2.76,3.49,2.76,1.6,0,3.21-.92,3.21-2.32,0-1.68-1-2.55-5.65-4-7.74-2.33-9.79-5.31-9.79-8.82,0-5.95,5.7-9.79,11.9-9.79,6.63,0,11.34,3.57,11.78,9.46Z"/><polygon class="cls-9" points="96.47 50.8 87.98 36.35 87.87 36.35 87.87 50.8 78.89 50.8 78.89 10.77 87.87 10.77 87.87 31.65 87.98 31.65 96.31 20.77 106.97 20.77 95.66 33.98 106.64 50.8 96.47 50.8"/><path class="cls-9" d="M38.42,21.39v1.37A15,15,0,0,0,15.9,35.19h0c0,.22,0,.44,0,.66s0,.4,0,.61h0c0,.24,0,.47.06.71l0,.32c0,.36.09.72.16,1.08,0,.14.05.28.08.42.07.32.15.63.24.94a4.91,4.91,0,0,0,.15.51c.08.27.18.54.29.81s.14.37.22.56.22.48.34.72.19.39.29.57l.39.65.36.57.43.59.42.54.47.54.49.51.51.48.53.47.55.43c.19.14.38.29.58.42l.57.37.65.38.57.3c.24.11.48.23.73.33l.55.23.82.29.51.15.93.23.43.08c.35.07.71.12,1.07.16.11,0,.22,0,.33,0s.47.06.71.07v0l.6,0a14.89,14.89,0,0,0,7.45-2v2h8.45V21.39ZM31,43.13a7,7,0,1,1,7-7,7,7,0,0,1-7,7"/><path class="cls-10" d="M158.36,20.91A15.11,15.11,0,1,0,173.46,36a15.1,15.1,0,0,0-15.1-15.11m0,21.66A6.55,6.55,0,1,1,164.91,36a6.55,6.55,0,0,1-6.55,6.55"/><path class="cls-10" d="M131.63,42.88a6.78,6.78,0,1,1,4.3-12l6.45-6.45a15.88,15.88,0,0,0-26.65,11h0c0,.24,0,.47,0,.7s0,.43,0,.64h0c0,.26,0,.5.07.75s0,.23,0,.34c0,.39.1.76.16,1.14l.09.45c.07.33.16.66.25,1s.1.36.16.54.19.58.3.86.15.39.24.59.23.51.36.76.2.4.31.6.26.46.4.69.25.4.39.6.29.41.44.62l.46.57.49.57c.17.18.33.36.51.53a6.51,6.51,0,0,0,.54.51l.56.5.58.45.61.45c.2.13.4.26.61.38s.45.28.68.4l.6.32.77.35c.19.09.38.16.58.24l.86.31.54.15c.32.1.65.18,1,.25l.45.09c.38.07.76.12,1.14.17l.34,0L131,52v0c.21,0,.42,0,.64,0a15.83,15.83,0,0,0,10.74-4.2l-6.46-6.45a6.77,6.77,0,0,1-4.28,1.52"/><path class="cls-10" d="M191.55,44.36V20h-8.71A6,6,0,0,1,183,21.3a5.37,5.37,0,0,1-5.16,5.57,4.36,4.36,0,0,1-.51,0V34.3l.51,0a11.32,11.32,0,0,0,5.88-1.65V44.36h-5v7.56h16.66V44.36Z"/><path class="cls-10" d="M202.17,51.7,209,42.33a4.69,4.69,0,0,1-1.53.2c-5.2,0-9.79-4.25-9.79-10.36,0-6.7,5.12-11.61,11.86-11.61,6.27,0,12.18,3.8,12.18,11.4a14.72,14.72,0,0,1-3,8.59L211.22,51.7Zm7.56-24.28a4.15,4.15,0,0,0-4.21,4.09,4.22,4.22,0,0,0,8.43.12,4.17,4.17,0,0,0-4.22-4.21"/></g></g></svg>
