<svg width="169" height="69" viewBox="0 0 169 69" fill="none" xmlns="http://www.w3.org/2000/svg">
<path d="M1.24 36.1983C1.24 34.4649 1.54667 32.7583 2.16 31.0783C2.8 29.3716 3.72 27.8516 4.92 26.5183C6.12 25.1849 7.58667 24.1049 9.32 23.2783C11.0533 22.4516 13.0267 22.0383 15.24 22.0383C17.8533 22.0383 20.1067 22.6116 22 23.7583C23.92 24.9049 25.3467 26.3983 26.28 28.2383L22.04 31.1583C21.6667 30.3583 21.2133 29.6916 20.68 29.1583C20.1467 28.5983 19.5733 28.1583 18.96 27.8383C18.3467 27.5183 17.7067 27.2916 17.04 27.1583C16.3733 26.9983 15.72 26.9183 15.08 26.9183C13.6933 26.9183 12.48 27.1983 11.44 27.7583C10.4267 28.3183 9.57333 29.0516 8.88 29.9583C8.21333 30.8383 7.70667 31.8516 7.36 32.9983C7.01333 34.1183 6.84 35.2383 6.84 36.3583C6.84 37.6116 7.04 38.8249 7.44 39.9983C7.84 41.1449 8.4 42.1583 9.12 43.0383C9.86667 43.9183 10.7467 44.6249 11.76 45.1583C12.8 45.6916 13.9333 45.9583 15.16 45.9583C15.8 45.9583 16.4667 45.8783 17.16 45.7183C17.8533 45.5583 18.5067 45.3049 19.12 44.9583C19.76 44.6116 20.3467 44.1716 20.88 43.6383C21.4133 43.0783 21.84 42.4116 22.16 41.6383L26.68 44.2383C26.2267 45.3049 25.5733 46.2516 24.72 47.0783C23.8933 47.8783 22.9467 48.5583 21.88 49.1183C20.84 49.6783 19.72 50.1049 18.52 50.3983C17.32 50.6916 16.1467 50.8383 15 50.8383C12.9733 50.8383 11.12 50.4116 9.44 49.5583C7.76 48.7049 6.30667 47.5983 5.08 46.2383C3.88 44.8516 2.93333 43.2916 2.24 41.5583C1.57333 39.7983 1.24 38.0116 1.24 36.1983ZM40.2284 50.7983C38.1484 50.7983 36.2551 50.3983 34.5484 49.5983C32.8684 48.7716 31.4151 47.6916 30.1884 46.3583C28.9884 44.9983 28.0551 43.4516 27.3884 41.7183C26.7218 39.9849 26.3884 38.2116 26.3884 36.3983C26.3884 34.5049 26.7351 32.6916 27.4284 30.9583C28.1484 29.2249 29.1218 27.6916 30.3484 26.3583C31.6018 25.0249 33.0818 23.9716 34.7884 23.1983C36.4951 22.3983 38.3484 21.9983 40.3484 21.9983C42.4018 21.9983 44.2684 22.4249 45.9484 23.2783C47.6551 24.1049 49.1084 25.1983 50.3084 26.5583C51.5084 27.9183 52.4418 29.4649 53.1084 31.1983C53.7751 32.9316 54.1084 34.6916 54.1084 36.4783C54.1084 38.3716 53.7618 40.1849 53.0684 41.9183C52.3751 43.6249 51.4151 45.1449 50.1884 46.4783C48.9618 47.7849 47.4951 48.8383 45.7884 49.6383C44.0818 50.4116 42.2284 50.7983 40.2284 50.7983ZM31.9884 36.3983C31.9884 37.6249 32.1751 38.8116 32.5484 39.9583C32.9218 41.1049 33.4551 42.1183 34.1484 42.9983C34.8684 43.8783 35.7351 44.5849 36.7484 45.1183C37.7884 45.6516 38.9618 45.9183 40.2684 45.9183C41.6018 45.9183 42.7751 45.6516 43.7884 45.1183C44.8284 44.5583 45.6951 43.8249 46.3884 42.9183C47.1084 42.0116 47.6418 40.9983 47.9884 39.8783C48.3618 38.7316 48.5484 37.5716 48.5484 36.3983C48.5484 35.1716 48.3484 33.9849 47.9484 32.8383C47.5751 31.6916 47.0284 30.6783 46.3084 29.7983C45.6151 28.9183 44.7484 28.2249 43.7084 27.7183C42.6951 27.1849 41.5484 26.9183 40.2684 26.9183C38.9351 26.9183 37.7484 27.1983 36.7084 27.7583C35.6684 28.2916 34.8018 29.0116 34.1084 29.9183C33.4151 30.7983 32.8818 31.8116 32.5084 32.9583C32.1618 34.0783 31.9884 35.2249 31.9884 36.3983ZM58.2081 22.1983L65.8881 43.6783L73.4881 22.1983H79.2881L68.2081 50.5983H63.5681L52.4081 22.1983H58.2081ZM80.3194 50.5983V22.1983H85.8394V50.5983H80.3194ZM89.7647 50.5983V22.1983H100.085C102.405 22.1983 104.431 22.5716 106.165 23.3183C107.925 24.0649 109.391 25.0783 110.565 26.3583C111.738 27.6383 112.618 29.1449 113.205 30.8783C113.791 32.5849 114.085 34.4116 114.085 36.3583C114.085 38.5183 113.751 40.4783 113.085 42.2383C112.445 43.9716 111.511 45.4649 110.285 46.7183C109.058 47.9449 107.578 48.9049 105.845 49.5983C104.138 50.2649 102.218 50.5983 100.085 50.5983H89.7647ZM108.525 36.3583C108.525 34.9983 108.338 33.7449 107.965 32.5983C107.591 31.4516 107.045 30.4649 106.325 29.6383C105.605 28.8116 104.711 28.1716 103.645 27.7183C102.605 27.2649 101.418 27.0383 100.085 27.0383H95.2847V45.7583H100.085C101.445 45.7583 102.645 45.5183 103.685 45.0383C104.751 44.5583 105.631 43.9049 106.325 43.0783C107.045 42.2249 107.591 41.2249 107.965 40.0783C108.338 38.9316 108.525 37.6916 108.525 36.3583ZM115.758 42.0383V37.1983H127.878V42.0383H115.758ZM146.097 45.7583V50.5983H129.857V45.7583H135.537V33.6383C135.297 33.9583 134.91 34.2916 134.377 34.6383C133.87 34.9583 133.31 35.2649 132.697 35.5583C132.084 35.8516 131.444 36.0916 130.777 36.2783C130.137 36.4649 129.564 36.5583 129.057 36.5583V31.5583C129.537 31.5583 130.124 31.4116 130.817 31.1183C131.51 30.7983 132.19 30.4249 132.857 29.9983C133.524 29.5716 134.097 29.1583 134.577 28.7583C135.084 28.3316 135.404 27.9983 135.537 27.7583H141.017V45.7583H146.097ZM146.343 37.6383C146.343 36.2516 146.609 34.9583 147.143 33.7583C147.676 32.5583 148.396 31.5183 149.303 30.6383C150.236 29.7316 151.329 29.0249 152.583 28.5183C153.863 28.0116 155.236 27.7583 156.703 27.7583C158.303 27.7583 159.743 28.0516 161.023 28.6383C162.329 29.2249 163.436 30.0783 164.343 31.1983C165.249 32.3183 165.943 33.6916 166.423 35.3183C166.929 36.9183 167.183 38.7449 167.183 40.7983C167.183 43.3849 166.916 45.6783 166.383 47.6783C165.876 49.6516 165.143 51.3049 164.183 52.6383C163.249 53.9983 162.103 55.0249 160.743 55.7183C159.383 56.4116 157.863 56.7583 156.183 56.7583C154.396 56.7583 152.743 56.3716 151.223 55.5983C149.703 54.8249 148.423 53.7183 147.383 52.2783L150.463 48.9183C151.103 49.9316 151.929 50.7183 152.943 51.2783C153.956 51.8383 155.063 52.1183 156.263 52.1183C158.049 52.1183 159.463 51.4116 160.503 49.9983C161.569 48.5849 162.129 46.5849 162.183 43.9983C161.649 44.9583 160.863 45.7183 159.823 46.2783C158.783 46.8383 157.583 47.1183 156.223 47.1183C154.809 47.1183 153.503 46.8783 152.303 46.3983C151.103 45.9183 150.063 45.2516 149.183 44.3983C148.303 43.5449 147.609 42.5449 147.103 41.3983C146.596 40.2249 146.343 38.9716 146.343 37.6383ZM156.703 32.2783C155.983 32.2783 155.303 32.4249 154.663 32.7183C154.049 32.9849 153.503 33.3716 153.023 33.8783C152.543 34.3583 152.156 34.9316 151.863 35.5983C151.596 36.2383 151.463 36.9183 151.463 37.6383C151.463 38.3583 151.596 39.0383 151.863 39.6783C152.156 40.2916 152.529 40.8383 152.983 41.3183C153.463 41.7983 154.023 42.1716 154.663 42.4383C155.303 42.7049 155.983 42.8383 156.703 42.8383C157.423 42.8383 158.103 42.7049 158.743 42.4383C159.383 42.1716 159.929 41.7983 160.383 41.3183C160.863 40.8383 161.236 40.2916 161.503 39.6783C161.796 39.0383 161.943 38.3583 161.943 37.6383C161.943 36.9183 161.796 36.2383 161.503 35.5983C161.236 34.9316 160.863 34.3583 160.383 33.8783C159.903 33.3983 159.343 33.0116 158.703 32.7183C158.089 32.4249 157.423 32.2783 156.703 32.2783Z" fill="#006EAA"/>
<mask id="path-2-inside-1" fill="white">
<path fill-rule="evenodd" clip-rule="evenodd" d="M118 0C113.582 0 110 3.58173 110 8.00001V16.1794C110 20.5977 113.582 24.1794 118 24.1794H118.103L120.569 33.1717C120.755 33.8483 121.811 34.033 122.424 33.4962L133.071 24.1794H146C150.418 24.1794 154 20.5977 154 16.1794V8C154 3.58172 150.418 0 146 0H118Z"/>
</mask>
<path d="M118.103 24.1794L121.478 23.2537L120.772 20.6794H118.103V24.1794ZM120.569 33.1717L123.945 32.246L123.945 32.246L120.569 33.1717ZM122.424 33.4962L120.119 30.8622L120.119 30.8622L122.424 33.4962ZM133.071 24.1794V20.6794H131.756L130.766 21.5455L133.071 24.1794ZM113.5 8.00001C113.5 5.51472 115.515 3.5 118 3.5V-3.5C111.649 -3.5 106.5 1.64874 106.5 8.00001H113.5ZM113.5 16.1794V8.00001H106.5V16.1794H113.5ZM118 20.6794C115.515 20.6794 113.5 18.6647 113.5 16.1794H106.5C106.5 22.5307 111.649 27.6794 118 27.6794V20.6794ZM118.103 20.6794H118V27.6794H118.103V20.6794ZM123.945 32.246L121.478 23.2537L114.728 25.1051L117.194 34.0975L123.945 32.246ZM120.119 30.8622C120.704 30.3507 121.391 30.2455 121.939 30.3413C122.446 30.43 123.569 30.8782 123.945 32.246L117.194 34.0975C117.755 36.1418 119.499 37.0207 120.733 37.2366C122.009 37.4597 123.531 37.1784 124.729 36.1301L120.119 30.8622ZM130.766 21.5455L120.119 30.8622L124.729 36.1301L135.376 26.8133L130.766 21.5455ZM146 20.6794H133.071V27.6794H146V20.6794ZM150.5 16.1794C150.5 18.6647 148.485 20.6794 146 20.6794V27.6794C152.351 27.6794 157.5 22.5307 157.5 16.1794H150.5ZM150.5 8V16.1794H157.5V8H150.5ZM146 3.5C148.485 3.5 150.5 5.51472 150.5 8H157.5C157.5 1.64872 152.351 -3.5 146 -3.5V3.5ZM118 3.5H146V-3.5H118V3.5Z" fill="#333333" mask="url(#path-2-inside-1)"/>
<path d="M129.52 13.6235C129.52 12.9106 129.6 12.3491 129.761 11.939C129.922 11.5239 130.184 11.165 130.545 10.8623C130.906 10.5596 131.18 10.2837 131.365 10.0347C131.556 9.78076 131.651 9.50244 131.651 9.19971C131.651 8.4624 131.333 8.09375 130.699 8.09375C130.406 8.09375 130.169 8.20117 129.988 8.41602C129.808 8.63086 129.712 8.92139 129.703 9.2876H127.227C127.237 8.31104 127.544 7.55176 128.15 7.00977C128.755 6.46289 129.605 6.18945 130.699 6.18945C131.788 6.18945 132.63 6.44092 133.226 6.94385C133.826 7.44678 134.126 8.16211 134.126 9.08984C134.126 9.49512 134.046 9.86377 133.885 10.1958C133.724 10.5278 133.465 10.8672 133.108 11.2139L132.266 11.9976C132.027 12.2271 131.861 12.4639 131.768 12.708C131.675 12.9473 131.624 13.2524 131.614 13.6235H129.52ZM129.219 15.8501C129.219 15.4888 129.349 15.1934 129.607 14.9639C129.871 14.7295 130.198 14.6123 130.589 14.6123C130.979 14.6123 131.304 14.7295 131.563 14.9639C131.827 15.1934 131.958 15.4888 131.958 15.8501C131.958 16.2114 131.827 16.5093 131.563 16.7437C131.304 16.9731 130.979 17.0879 130.589 17.0879C130.198 17.0879 129.871 16.9731 129.607 16.7437C129.349 16.5093 129.219 16.2114 129.219 15.8501Z" fill="#333333"/>
<path d="M3.35352 66V60.498H2.35156V59.6602H3.35352V59.0098C3.35352 58.3301 3.53516 57.8047 3.89844 57.4336C4.26172 57.0625 4.77539 56.877 5.43945 56.877C5.68945 56.877 5.9375 56.9102 6.18359 56.9766L6.125 57.8555C5.94141 57.8203 5.74609 57.8027 5.53906 57.8027C5.1875 57.8027 4.91602 57.9062 4.72461 58.1133C4.5332 58.3164 4.4375 58.6094 4.4375 58.9922V59.6602H5.79102V60.498H4.4375V66H3.35352ZM6.70508 62.7715C6.70508 62.1504 6.82617 61.5918 7.06836 61.0957C7.31445 60.5996 7.6543 60.2168 8.08789 59.9473C8.52539 59.6777 9.02344 59.543 9.58203 59.543C10.4453 59.543 11.1426 59.8418 11.6738 60.4395C12.209 61.0371 12.4766 61.832 12.4766 62.8242V62.9004C12.4766 63.5176 12.3574 64.0723 12.1191 64.5645C11.8848 65.0527 11.5469 65.4336 11.1055 65.707C10.668 65.9805 10.1641 66.1172 9.59375 66.1172C8.73438 66.1172 8.03711 65.8184 7.50195 65.2207C6.9707 64.623 6.70508 63.832 6.70508 62.8477V62.7715ZM7.79492 62.9004C7.79492 63.6035 7.95703 64.168 8.28125 64.5938C8.60938 65.0195 9.04688 65.2324 9.59375 65.2324C10.1445 65.2324 10.582 65.0176 10.9062 64.5879C11.2305 64.1543 11.3926 63.5488 11.3926 62.7715C11.3926 62.0762 11.2266 61.5137 10.8945 61.084C10.5664 60.6504 10.1289 60.4336 9.58203 60.4336C9.04688 60.4336 8.61523 60.6465 8.28711 61.0723C7.95898 61.498 7.79492 62.1074 7.79492 62.9004ZM16.9004 60.6328C16.7363 60.6055 16.5586 60.5918 16.3672 60.5918C15.6562 60.5918 15.1738 60.8945 14.9199 61.5V66H13.8359V59.6602H14.8906L14.9082 60.3926C15.2637 59.8262 15.7676 59.543 16.4199 59.543C16.6309 59.543 16.791 59.5703 16.9004 59.625V60.6328ZM26.2344 62.9004C26.2344 63.8652 26.0137 64.6426 25.5723 65.2324C25.1309 65.8223 24.5332 66.1172 23.7793 66.1172C23.0098 66.1172 22.4043 65.873 21.9629 65.3848V68.4375H20.8789V59.6602H21.8691L21.9219 60.3633C22.3633 59.8164 22.9766 59.543 23.7617 59.543C24.5234 59.543 25.125 59.8301 25.5664 60.4043C26.0117 60.9785 26.2344 61.7773 26.2344 62.8008V62.9004ZM25.1504 62.7773C25.1504 62.0625 24.998 61.498 24.6934 61.084C24.3887 60.6699 23.9707 60.4629 23.4395 60.4629C22.7832 60.4629 22.291 60.7539 21.9629 61.3359V64.3652C22.2871 64.9434 22.7832 65.2324 23.4512 65.2324C23.9707 65.2324 24.3828 65.0273 24.6875 64.6172C24.9961 64.2031 25.1504 63.5898 25.1504 62.7773ZM28.7012 60.4277C29.1816 59.8379 29.8066 59.543 30.5762 59.543C31.916 59.543 32.5918 60.2988 32.6035 61.8105V66H31.5195V61.8047C31.5156 61.3477 31.4102 61.0098 31.2031 60.791C31 60.5723 30.6816 60.4629 30.248 60.4629C29.8965 60.4629 29.5879 60.5566 29.3223 60.7441C29.0566 60.9316 28.8496 61.1777 28.7012 61.4824V66H27.6172V57H28.7012V60.4277ZM36.3008 64.4121L37.7773 59.6602H38.9375L36.3887 66.9785C35.9941 68.0332 35.3672 68.5605 34.5078 68.5605L34.3027 68.543L33.8984 68.4668V67.5879L34.1914 67.6113C34.5586 67.6113 34.8438 67.5371 35.0469 67.3887C35.2539 67.2402 35.4238 66.9688 35.5566 66.5742L35.7969 65.9297L33.5352 59.6602H34.7188L36.3008 64.4121ZM43.6016 64.3184C43.6016 64.0254 43.4902 63.7988 43.2676 63.6387C43.0488 63.4746 42.6641 63.334 42.1133 63.2168C41.5664 63.0996 41.1309 62.959 40.8066 62.7949C40.4863 62.6309 40.248 62.4355 40.0918 62.209C39.9395 61.9824 39.8633 61.7129 39.8633 61.4004C39.8633 60.8809 40.082 60.4414 40.5195 60.082C40.9609 59.7227 41.5234 59.543 42.207 59.543C42.9258 59.543 43.5078 59.7285 43.9531 60.0996C44.4023 60.4707 44.627 60.9453 44.627 61.5234H43.5371C43.5371 61.2266 43.4102 60.9707 43.1562 60.7559C42.9062 60.541 42.5898 60.4336 42.207 60.4336C41.8125 60.4336 41.5039 60.5195 41.2812 60.6914C41.0586 60.8633 40.9473 61.0879 40.9473 61.3652C40.9473 61.627 41.0508 61.8242 41.2578 61.957C41.4648 62.0898 41.8379 62.2168 42.377 62.3379C42.9199 62.459 43.3594 62.6035 43.6953 62.7715C44.0312 62.9395 44.2793 63.1426 44.4395 63.3809C44.6035 63.6152 44.6855 63.9023 44.6855 64.2422C44.6855 64.8086 44.459 65.2637 44.0059 65.6074C43.5527 65.9473 42.9648 66.1172 42.2422 66.1172C41.7344 66.1172 41.2852 66.0273 40.8945 65.8477C40.5039 65.668 40.1973 65.418 39.9746 65.0977C39.7559 64.7734 39.6465 64.4238 39.6465 64.0488H40.7305C40.75 64.4121 40.8945 64.7012 41.1641 64.916C41.4375 65.127 41.7969 65.2324 42.2422 65.2324C42.6523 65.2324 42.9805 65.1504 43.2266 64.9863C43.4766 64.8184 43.6016 64.5957 43.6016 64.3184ZM47.2754 66H46.1914V59.6602H47.2754V66ZM46.1035 57.9785C46.1035 57.8027 46.1562 57.6543 46.2617 57.5332C46.3711 57.4121 46.5312 57.3516 46.7422 57.3516C46.9531 57.3516 47.1133 57.4121 47.2227 57.5332C47.332 57.6543 47.3867 57.8027 47.3867 57.9785C47.3867 58.1543 47.332 58.3008 47.2227 58.418C47.1133 58.5352 46.9531 58.5938 46.7422 58.5938C46.5312 58.5938 46.3711 58.5352 46.2617 58.418C46.1562 58.3008 46.1035 58.1543 46.1035 57.9785ZM51.5586 65.2324C51.9453 65.2324 52.2832 65.1152 52.5723 64.8809C52.8613 64.6465 53.0215 64.3535 53.0527 64.002H54.0781C54.0586 64.3652 53.9336 64.7109 53.7031 65.0391C53.4727 65.3672 53.1641 65.6289 52.7773 65.8242C52.3945 66.0195 51.9883 66.1172 51.5586 66.1172C50.6953 66.1172 50.0078 65.8301 49.4961 65.2559C48.9883 64.6777 48.7344 63.8887 48.7344 62.8887V62.707C48.7344 62.0898 48.8477 61.541 49.0742 61.0605C49.3008 60.5801 49.625 60.207 50.0469 59.9414C50.4727 59.6758 50.9746 59.543 51.5527 59.543C52.2637 59.543 52.8535 59.7559 53.3223 60.1816C53.7949 60.6074 54.0469 61.1602 54.0781 61.8398H53.0527C53.0215 61.4297 52.8652 61.0938 52.584 60.832C52.3066 60.5664 51.9629 60.4336 51.5527 60.4336C51.002 60.4336 50.5742 60.6328 50.2695 61.0312C49.9688 61.4258 49.8184 61.998 49.8184 62.748V62.9531C49.8184 63.6836 49.9688 64.2461 50.2695 64.6406C50.5703 65.0352 51 65.2324 51.5586 65.2324ZM56.4746 66H55.3906V59.6602H56.4746V66ZM55.3027 57.9785C55.3027 57.8027 55.3555 57.6543 55.4609 57.5332C55.5703 57.4121 55.7305 57.3516 55.9414 57.3516C56.1523 57.3516 56.3125 57.4121 56.4219 57.5332C56.5312 57.6543 56.5859 57.8027 56.5859 57.9785C56.5859 58.1543 56.5312 58.3008 56.4219 58.418C56.3125 58.5352 56.1523 58.5938 55.9414 58.5938C55.7305 58.5938 55.5703 58.5352 55.4609 58.418C55.3555 58.3008 55.3027 58.1543 55.3027 57.9785ZM62.1289 66C62.0664 65.875 62.0156 65.6523 61.9766 65.332C61.4727 65.8555 60.8711 66.1172 60.1719 66.1172C59.5469 66.1172 59.0332 65.9414 58.6309 65.5898C58.2324 65.2344 58.0332 64.7852 58.0332 64.2422C58.0332 63.582 58.2832 63.0703 58.7832 62.707C59.2871 62.3398 59.9941 62.1562 60.9043 62.1562H61.959V61.6582C61.959 61.2793 61.8457 60.9785 61.6191 60.7559C61.3926 60.5293 61.0586 60.416 60.6172 60.416C60.2305 60.416 59.9062 60.5137 59.6445 60.709C59.3828 60.9043 59.252 61.1406 59.252 61.418H58.1621C58.1621 61.1016 58.2734 60.7969 58.4961 60.5039C58.7227 60.207 59.0273 59.9727 59.4102 59.8008C59.7969 59.6289 60.2207 59.543 60.6816 59.543C61.4121 59.543 61.9844 59.7266 62.3984 60.0938C62.8125 60.457 63.0273 60.959 63.043 61.5996V64.5176C63.043 65.0996 63.1172 65.5625 63.2656 65.9062V66H62.1289ZM60.3301 65.1738C60.6699 65.1738 60.9922 65.0859 61.2969 64.9102C61.6016 64.7344 61.8223 64.5059 61.959 64.2246V62.9238H61.1094C59.7812 62.9238 59.1172 63.3125 59.1172 64.0898C59.1172 64.4297 59.2305 64.6953 59.457 64.8867C59.6836 65.0781 59.9746 65.1738 60.3301 65.1738ZM65.7676 59.6602L65.8027 60.457C66.2871 59.8477 66.9199 59.543 67.7012 59.543C69.041 59.543 69.7168 60.2988 69.7285 61.8105V66H68.6445V61.8047C68.6406 61.3477 68.5352 61.0098 68.3281 60.791C68.125 60.5723 67.8066 60.4629 67.373 60.4629C67.0215 60.4629 66.7129 60.5566 66.4473 60.7441C66.1816 60.9316 65.9746 61.1777 65.8262 61.4824V66H64.7422V59.6602H65.7676ZM75.0547 64.3184C75.0547 64.0254 74.9434 63.7988 74.7207 63.6387C74.502 63.4746 74.1172 63.334 73.5664 63.2168C73.0195 63.0996 72.584 62.959 72.2598 62.7949C71.9395 62.6309 71.7012 62.4355 71.5449 62.209C71.3926 61.9824 71.3164 61.7129 71.3164 61.4004C71.3164 60.8809 71.5352 60.4414 71.9727 60.082C72.4141 59.7227 72.9766 59.543 73.6602 59.543C74.3789 59.543 74.9609 59.7285 75.4062 60.0996C75.8555 60.4707 76.0801 60.9453 76.0801 61.5234H74.9902C74.9902 61.2266 74.8633 60.9707 74.6094 60.7559C74.3594 60.541 74.043 60.4336 73.6602 60.4336C73.2656 60.4336 72.957 60.5195 72.7344 60.6914C72.5117 60.8633 72.4004 61.0879 72.4004 61.3652C72.4004 61.627 72.5039 61.8242 72.7109 61.957C72.918 62.0898 73.291 62.2168 73.8301 62.3379C74.373 62.459 74.8125 62.6035 75.1484 62.7715C75.4844 62.9395 75.7324 63.1426 75.8926 63.3809C76.0566 63.6152 76.1387 63.9023 76.1387 64.2422C76.1387 64.8086 75.9121 65.2637 75.459 65.6074C75.0059 65.9473 74.418 66.1172 73.6953 66.1172C73.1875 66.1172 72.7383 66.0273 72.3477 65.8477C71.957 65.668 71.6504 65.418 71.4277 65.0977C71.209 64.7734 71.0996 64.4238 71.0996 64.0488H72.1836C72.2031 64.4121 72.3477 64.7012 72.6172 64.916C72.8906 65.127 73.25 65.2324 73.6953 65.2324C74.1055 65.2324 74.4336 65.1504 74.6797 64.9863C74.9297 64.8184 75.0547 64.5957 75.0547 64.3184Z" fill="#006EAA"/>
</svg>
