<svg width="169" height="60" viewBox="0 0 169 60" fill="none" xmlns="http://www.w3.org/2000/svg">
<path d="M1.24 36.1983C1.24 34.4649 1.54667 32.7583 2.16 31.0783C2.8 29.3716 3.72 27.8516 4.92 26.5183C6.12 25.1849 7.58667 24.1049 9.32 23.2783C11.0533 22.4516 13.0267 22.0383 15.24 22.0383C17.8533 22.0383 20.1067 22.6116 22 23.7583C23.92 24.9049 25.3467 26.3983 26.28 28.2383L22.04 31.1583C21.6667 30.3583 21.2133 29.6916 20.68 29.1583C20.1467 28.5983 19.5733 28.1583 18.96 27.8383C18.3467 27.5183 17.7067 27.2916 17.04 27.1583C16.3733 26.9983 15.72 26.9183 15.08 26.9183C13.6933 26.9183 12.48 27.1983 11.44 27.7583C10.4267 28.3183 9.57333 29.0516 8.88 29.9583C8.21333 30.8383 7.70667 31.8516 7.36 32.9983C7.01333 34.1183 6.84 35.2383 6.84 36.3583C6.84 37.6116 7.04 38.8249 7.44 39.9983C7.84 41.1449 8.4 42.1583 9.12 43.0383C9.86667 43.9183 10.7467 44.6249 11.76 45.1583C12.8 45.6916 13.9333 45.9583 15.16 45.9583C15.8 45.9583 16.4667 45.8783 17.16 45.7183C17.8533 45.5583 18.5067 45.3049 19.12 44.9583C19.76 44.6116 20.3467 44.1716 20.88 43.6383C21.4133 43.0783 21.84 42.4116 22.16 41.6383L26.68 44.2383C26.2267 45.3049 25.5733 46.2516 24.72 47.0783C23.8933 47.8783 22.9467 48.5583 21.88 49.1183C20.84 49.6783 19.72 50.1049 18.52 50.3983C17.32 50.6916 16.1467 50.8383 15 50.8383C12.9733 50.8383 11.12 50.4116 9.44 49.5583C7.76 48.7049 6.30667 47.5983 5.08 46.2383C3.88 44.8516 2.93333 43.2916 2.24 41.5583C1.57333 39.7983 1.24 38.0116 1.24 36.1983ZM40.2284 50.7983C38.1484 50.7983 36.2551 50.3983 34.5484 49.5983C32.8684 48.7716 31.4151 47.6916 30.1884 46.3583C28.9884 44.9983 28.0551 43.4516 27.3884 41.7183C26.7218 39.9849 26.3884 38.2116 26.3884 36.3983C26.3884 34.5049 26.7351 32.6916 27.4284 30.9583C28.1484 29.2249 29.1218 27.6916 30.3484 26.3583C31.6018 25.0249 33.0818 23.9716 34.7884 23.1983C36.4951 22.3983 38.3484 21.9983 40.3484 21.9983C42.4018 21.9983 44.2684 22.4249 45.9484 23.2783C47.6551 24.1049 49.1084 25.1983 50.3084 26.5583C51.5084 27.9183 52.4418 29.4649 53.1084 31.1983C53.7751 32.9316 54.1084 34.6916 54.1084 36.4783C54.1084 38.3716 53.7618 40.1849 53.0684 41.9183C52.3751 43.6249 51.4151 45.1449 50.1884 46.4783C48.9618 47.7849 47.4951 48.8383 45.7884 49.6383C44.0818 50.4116 42.2284 50.7983 40.2284 50.7983ZM31.9884 36.3983C31.9884 37.6249 32.1751 38.8116 32.5484 39.9583C32.9218 41.1049 33.4551 42.1183 34.1484 42.9983C34.8684 43.8783 35.7351 44.5849 36.7484 45.1183C37.7884 45.6516 38.9618 45.9183 40.2684 45.9183C41.6018 45.9183 42.7751 45.6516 43.7884 45.1183C44.8284 44.5583 45.6951 43.8249 46.3884 42.9183C47.1084 42.0116 47.6418 40.9983 47.9884 39.8783C48.3618 38.7316 48.5484 37.5716 48.5484 36.3983C48.5484 35.1716 48.3484 33.9849 47.9484 32.8383C47.5751 31.6916 47.0284 30.6783 46.3084 29.7983C45.6151 28.9183 44.7484 28.2249 43.7084 27.7183C42.6951 27.1849 41.5484 26.9183 40.2684 26.9183C38.9351 26.9183 37.7484 27.1983 36.7084 27.7583C35.6684 28.2916 34.8018 29.0116 34.1084 29.9183C33.4151 30.7983 32.8818 31.8116 32.5084 32.9583C32.1618 34.0783 31.9884 35.2249 31.9884 36.3983ZM58.2081 22.1983L65.8881 43.6783L73.4881 22.1983H79.2881L68.2081 50.5983H63.5681L52.4081 22.1983H58.2081ZM80.3194 50.5983V22.1983H85.8394V50.5983H80.3194ZM89.7647 50.5983V22.1983H100.085C102.405 22.1983 104.431 22.5716 106.165 23.3183C107.925 24.0649 109.391 25.0783 110.565 26.3583C111.738 27.6383 112.618 29.1449 113.205 30.8783C113.791 32.5849 114.085 34.4116 114.085 36.3583C114.085 38.5183 113.751 40.4783 113.085 42.2383C112.445 43.9716 111.511 45.4649 110.285 46.7183C109.058 47.9449 107.578 48.9049 105.845 49.5983C104.138 50.2649 102.218 50.5983 100.085 50.5983H89.7647ZM108.525 36.3583C108.525 34.9983 108.338 33.7449 107.965 32.5983C107.591 31.4516 107.045 30.4649 106.325 29.6383C105.605 28.8116 104.711 28.1716 103.645 27.7183C102.605 27.2649 101.418 27.0383 100.085 27.0383H95.2847V45.7583H100.085C101.445 45.7583 102.645 45.5183 103.685 45.0383C104.751 44.5583 105.631 43.9049 106.325 43.0783C107.045 42.2249 107.591 41.2249 107.965 40.0783C108.338 38.9316 108.525 37.6916 108.525 36.3583ZM115.758 42.0383V37.1983H127.878V42.0383H115.758ZM146.097 45.7583V50.5983H129.857V45.7583H135.537V33.6383C135.297 33.9583 134.91 34.2916 134.377 34.6383C133.87 34.9583 133.31 35.2649 132.697 35.5583C132.084 35.8516 131.444 36.0916 130.777 36.2783C130.137 36.4649 129.564 36.5583 129.057 36.5583V31.5583C129.537 31.5583 130.124 31.4116 130.817 31.1183C131.51 30.7983 132.19 30.4249 132.857 29.9983C133.524 29.5716 134.097 29.1583 134.577 28.7583C135.084 28.3316 135.404 27.9983 135.537 27.7583H141.017V45.7583H146.097ZM146.343 37.6383C146.343 36.2516 146.609 34.9583 147.143 33.7583C147.676 32.5583 148.396 31.5183 149.303 30.6383C150.236 29.7316 151.329 29.0249 152.583 28.5183C153.863 28.0116 155.236 27.7583 156.703 27.7583C158.303 27.7583 159.743 28.0516 161.023 28.6383C162.329 29.2249 163.436 30.0783 164.343 31.1983C165.249 32.3183 165.943 33.6916 166.423 35.3183C166.929 36.9183 167.183 38.7449 167.183 40.7983C167.183 43.3849 166.916 45.6783 166.383 47.6783C165.876 49.6516 165.143 51.3049 164.183 52.6383C163.249 53.9983 162.103 55.0249 160.743 55.7183C159.383 56.4116 157.863 56.7583 156.183 56.7583C154.396 56.7583 152.743 56.3716 151.223 55.5983C149.703 54.8249 148.423 53.7183 147.383 52.2783L150.463 48.9183C151.103 49.9316 151.929 50.7183 152.943 51.2783C153.956 51.8383 155.063 52.1183 156.263 52.1183C158.049 52.1183 159.463 51.4116 160.503 49.9983C161.569 48.5849 162.129 46.5849 162.183 43.9983C161.649 44.9583 160.863 45.7183 159.823 46.2783C158.783 46.8383 157.583 47.1183 156.223 47.1183C154.809 47.1183 153.503 46.8783 152.303 46.3983C151.103 45.9183 150.063 45.2516 149.183 44.3983C148.303 43.5449 147.609 42.5449 147.103 41.3983C146.596 40.2249 146.343 38.9716 146.343 37.6383ZM156.703 32.2783C155.983 32.2783 155.303 32.4249 154.663 32.7183C154.049 32.9849 153.503 33.3716 153.023 33.8783C152.543 34.3583 152.156 34.9316 151.863 35.5983C151.596 36.2383 151.463 36.9183 151.463 37.6383C151.463 38.3583 151.596 39.0383 151.863 39.6783C152.156 40.2916 152.529 40.8383 152.983 41.3183C153.463 41.7983 154.023 42.1716 154.663 42.4383C155.303 42.7049 155.983 42.8383 156.703 42.8383C157.423 42.8383 158.103 42.7049 158.743 42.4383C159.383 42.1716 159.929 41.7983 160.383 41.3183C160.863 40.8383 161.236 40.2916 161.503 39.6783C161.796 39.0383 161.943 38.3583 161.943 37.6383C161.943 36.9183 161.796 36.2383 161.503 35.5983C161.236 34.9316 160.863 34.3583 160.383 33.8783C159.903 33.3983 159.343 33.0116 158.703 32.7183C158.089 32.4249 157.423 32.2783 156.703 32.2783Z" fill="#006EAA"/>
<mask id="path-2-inside-1" fill="white">
<path fill-rule="evenodd" clip-rule="evenodd" d="M118 0C113.582 0 110 3.58173 110 8.00001V16.1794C110 20.5977 113.582 24.1794 118 24.1794H118.103L120.569 33.1717C120.755 33.8483 121.811 34.033 122.424 33.4962L133.071 24.1794H146C150.418 24.1794 154 20.5977 154 16.1794V8C154 3.58172 150.418 0 146 0H118Z"/>
</mask>
<path d="M118.103 24.1794L121.478 23.2537L120.772 20.6794H118.103V24.1794ZM120.569 33.1717L123.945 32.246L123.945 32.246L120.569 33.1717ZM122.424 33.4962L120.119 30.8622L120.119 30.8622L122.424 33.4962ZM133.071 24.1794V20.6794H131.756L130.766 21.5455L133.071 24.1794ZM113.5 8.00001C113.5 5.51472 115.515 3.5 118 3.5V-3.5C111.649 -3.5 106.5 1.64874 106.5 8.00001H113.5ZM113.5 16.1794V8.00001H106.5V16.1794H113.5ZM118 20.6794C115.515 20.6794 113.5 18.6647 113.5 16.1794H106.5C106.5 22.5307 111.649 27.6794 118 27.6794V20.6794ZM118.103 20.6794H118V27.6794H118.103V20.6794ZM123.945 32.246L121.478 23.2537L114.728 25.1051L117.194 34.0975L123.945 32.246ZM120.119 30.8622C120.704 30.3507 121.391 30.2455 121.939 30.3413C122.446 30.43 123.569 30.8782 123.945 32.246L117.194 34.0975C117.755 36.1418 119.499 37.0207 120.733 37.2366C122.009 37.4597 123.531 37.1784 124.729 36.1301L120.119 30.8622ZM130.766 21.5455L120.119 30.8622L124.729 36.1301L135.376 26.8133L130.766 21.5455ZM146 20.6794H133.071V27.6794H146V20.6794ZM150.5 16.1794C150.5 18.6647 148.485 20.6794 146 20.6794V27.6794C152.351 27.6794 157.5 22.5307 157.5 16.1794H150.5ZM150.5 8V16.1794H157.5V8H150.5ZM146 3.5C148.485 3.5 150.5 5.51472 150.5 8H157.5C157.5 1.64872 152.351 -3.5 146 -3.5V3.5ZM118 3.5H146V-3.5H118V3.5Z" fill="#333333" mask="url(#path-2-inside-1)"/>
<path d="M129.52 13.6235C129.52 12.9106 129.6 12.3491 129.761 11.939C129.922 11.5239 130.184 11.165 130.545 10.8623C130.906 10.5596 131.18 10.2837 131.365 10.0347C131.556 9.78076 131.651 9.50244 131.651 9.19971C131.651 8.4624 131.333 8.09375 130.699 8.09375C130.406 8.09375 130.169 8.20117 129.988 8.41602C129.808 8.63086 129.712 8.92139 129.703 9.2876H127.227C127.237 8.31104 127.544 7.55176 128.15 7.00977C128.755 6.46289 129.605 6.18945 130.699 6.18945C131.788 6.18945 132.63 6.44092 133.226 6.94385C133.826 7.44678 134.126 8.16211 134.126 9.08984C134.126 9.49512 134.046 9.86377 133.885 10.1958C133.724 10.5278 133.465 10.8672 133.108 11.2139L132.266 11.9976C132.027 12.2271 131.861 12.4639 131.768 12.708C131.675 12.9473 131.624 13.2524 131.614 13.6235H129.52ZM129.219 15.8501C129.219 15.4888 129.349 15.1934 129.607 14.9639C129.871 14.7295 130.198 14.6123 130.589 14.6123C130.979 14.6123 131.304 14.7295 131.563 14.9639C131.827 15.1934 131.958 15.4888 131.958 15.8501C131.958 16.2114 131.827 16.5093 131.563 16.7437C131.304 16.9731 130.979 17.0879 130.589 17.0879C130.198 17.0879 129.871 16.9731 129.607 16.7437C129.349 16.5093 129.219 16.2114 129.219 15.8501Z" fill="#333333"/>
</svg>
