<svg width="36" height="46" viewBox="0 0 36 46" fill="none" xmlns="http://www.w3.org/2000/svg">
<g clip-path="url(#clip0)">
<path d="M9.68 45.44V34H5.92C4.30729 33.9529 2.77892 33.2688 1.66941 32.0975C0.559905 30.9261 -0.0403585 29.3629 3.09874e-06 27.75V6.26C-0.0430488 4.64539 0.556015 3.07962 1.66581 1.90609C2.7756 0.732566 4.30551 0.0470872 5.92 0L30 0C30.8063 0.0129388 31.6019 0.185602 32.341 0.508003C33.0802 0.830404 33.748 1.29614 34.306 1.87829C34.8639 2.46043 35.3009 3.14742 35.5917 3.89952C35.8825 4.65163 36.0213 5.45392 36 6.26V27.75C36.0199 28.5552 35.8801 29.3565 35.5888 30.1074C35.2974 30.8584 34.8602 31.5442 34.3023 32.1252C33.7445 32.7063 33.0771 33.1711 32.3387 33.4929C31.6002 33.8147 30.8054 33.987 30 34H20.16L20.1 34.07L9.68 45.44ZM5.92 2.64C5.00555 2.6866 4.14686 3.09377 3.53206 3.7723C2.91725 4.45083 2.59648 5.3454 2.64 6.26V27.75C2.59642 28.6656 2.91689 29.5613 3.53144 30.2414C4.14598 30.9215 5.00468 31.3308 5.92 31.38H12.32V38.66L18.94 31.38H30C30.9153 31.3308 31.774 30.9215 32.3886 30.2414C33.0031 29.5613 33.3236 28.6656 33.28 27.75V6.26C33.3235 5.3454 33.0028 4.45083 32.388 3.7723C31.7731 3.09377 30.9145 2.6866 30 2.64H5.92Z" fill="white"/>
<path d="M24.78 26.49L22.63 19.08C22.6189 19.0405 22.6196 18.9986 22.6321 18.9595C22.6445 18.9204 22.6681 18.8858 22.7 18.86L28.8 14.15C28.8319 14.1231 28.8551 14.0873 28.8666 14.0471C28.878 14.007 28.8773 13.9644 28.8644 13.9246C28.8515 13.8849 28.8271 13.85 28.7943 13.8242C28.7614 13.7984 28.7216 13.783 28.68 13.78L21 13.53C20.958 13.5284 20.9174 13.5142 20.8835 13.4892C20.8496 13.4642 20.824 13.4297 20.81 13.39L18.21 6.13999C18.1944 6.10101 18.1675 6.06759 18.1328 6.04406C18.098 6.02052 18.057 6.00793 18.015 6.00793C17.973 6.00793 17.932 6.02052 17.8973 6.04406C17.8625 6.06759 17.8356 6.10101 17.82 6.13999L15.22 13.39C15.2073 13.4305 15.182 13.4658 15.1479 13.491C15.1137 13.5162 15.0724 13.5298 15.03 13.53L7.32001 13.78C7.27521 13.7765 7.23054 13.7882 7.19319 13.8131C7.15584 13.8381 7.12799 13.8749 7.11413 13.9177C7.10026 13.9604 7.1012 14.0066 7.11678 14.0487C7.13236 14.0909 7.16168 14.1265 7.20001 14.15L13.29 18.86C13.3237 18.8846 13.3493 18.9186 13.3635 18.9578C13.3778 18.997 13.38 19.0395 13.37 19.08L11.21 26.49C11.194 26.5309 11.1919 26.5759 11.204 26.6181C11.2162 26.6603 11.2418 26.6973 11.2771 26.7235C11.3123 26.7497 11.3552 26.7635 11.3991 26.7629C11.443 26.7622 11.4855 26.7472 11.52 26.72L17.9 22.38C17.9337 22.3563 17.9738 22.3436 18.015 22.3436C18.0562 22.3436 18.0963 22.3563 18.13 22.38L24.51 26.72C24.5439 26.7337 24.5809 26.7379 24.617 26.732C24.6531 26.7262 24.6869 26.7106 24.7147 26.6869C24.7426 26.6631 24.7634 26.6323 24.7749 26.5975C24.7864 26.5628 24.7882 26.5256 24.78 26.49Z" fill="white"/>
</g>
<defs>
<clipPath id="clip0">
<rect width="35.95" height="45.44" fill="white"/>
</clipPath>
</defs>
</svg>
