<svg width="212" height="181" viewBox="0 0 212 181" fill="none" xmlns="http://www.w3.org/2000/svg">
<path d="M58.8956 62.2163H82.4523V84.8404C82.4523 86.3405 83.0728 87.7791 84.1772 88.8398C85.2817 89.9006 86.7796 90.4965 88.3415 90.4965H111.898C113.46 90.4965 114.958 89.9006 116.063 88.8398C117.167 87.7791 117.787 86.3405 117.787 84.8404V62.2163H141.344C142.906 62.2163 144.404 61.6204 145.508 60.5597C146.613 59.499 147.233 58.0604 147.233 56.5603V33.9362C147.233 32.4361 146.613 30.9975 145.508 29.9368C144.404 28.876 142.906 28.2801 141.344 28.2801H117.787V5.65603C117.787 4.15596 117.167 2.71732 116.063 1.65661C114.958 0.595901 113.46 0 111.898 0H88.3415C86.7796 0 85.2817 0.595901 84.1772 1.65661C83.0728 2.71732 82.4523 4.15596 82.4523 5.65603V28.2801H58.8956C57.3337 28.2801 55.8357 28.876 54.7313 29.9368C53.6268 30.9975 53.0064 32.4361 53.0064 33.9362V56.5603C53.0064 58.0604 53.6268 59.499 54.7313 60.5597C55.8357 61.6204 57.3337 62.2163 58.8956 62.2163ZM209.14 118.886C207.996 117.388 206.554 116.122 204.899 115.16C203.244 114.198 201.407 113.56 199.494 113.281C197.581 113.003 195.63 113.091 193.753 113.539C191.875 113.987 190.108 114.786 188.553 115.892L144.506 147.064H100.113C98.5506 147.064 97.0527 146.468 95.9482 145.407C94.8438 144.346 94.2233 142.908 94.2233 141.408C94.2233 139.908 94.8438 138.469 95.9482 137.408C97.0527 136.348 98.5506 135.752 100.113 135.752H128.911C134.8 135.752 140.229 131.909 141.193 126.345C141.478 124.72 141.39 123.056 140.937 121.467C140.483 119.878 139.674 118.403 138.566 117.145C137.458 115.887 136.078 114.876 134.521 114.183C132.965 113.49 131.27 113.131 129.555 113.131H70.6629C60.7303 113.129 51.0986 116.405 43.3812 122.411L26.2658 135.752H5.88919C4.33055 135.762 2.83877 136.361 1.73662 137.42C0.634479 138.478 0.0106066 139.911 0 141.408V175.344C0.0106066 176.841 0.634479 178.274 1.73662 179.332C2.83877 180.391 4.33055 180.99 5.88919 181H133.611C141.78 180.981 149.732 178.472 156.321 173.835L206.022 138.636C209.159 136.412 211.249 133.083 211.834 129.38C212.418 125.678 211.449 121.904 209.14 118.886Z" fill="url(#paint0_linear)"/>
<defs>
<linearGradient id="paint0_linear" x1="72.1904" y1="0.0636528" x2="77.6226" y2="282.874" gradientUnits="userSpaceOnUse">
<stop stop-color="#FAFDFE"/>
<stop offset="1" stop-color="white" stop-opacity="0"/>
</linearGradient>
</defs>
</svg>
