<svg width="36" height="46" viewBox="0 0 36 46" fill="none" xmlns="http://www.w3.org/2000/svg">
<g clip-path="url(#clip0)">
<path d="M9.68 45.44V34H5.92C4.30729 33.9529 2.77892 33.2688 1.66941 32.0975C0.559905 30.9261 -0.0403585 29.3629 3.09874e-06 27.75V6.26C-0.0430488 4.64539 0.556015 3.07962 1.66581 1.90609C2.7756 0.732566 4.30551 0.0470872 5.92 0L30 0C30.8063 0.0129388 31.6019 0.185602 32.341 0.508003C33.0802 0.830404 33.748 1.29614 34.306 1.87829C34.8639 2.46043 35.3009 3.14742 35.5917 3.89952C35.8825 4.65163 36.0213 5.45392 36 6.26V27.75C36.0199 28.5552 35.8801 29.3565 35.5888 30.1074C35.2974 30.8584 34.8602 31.5442 34.3023 32.1252C33.7445 32.7063 33.0771 33.1711 32.3387 33.4929C31.6002 33.8147 30.8054 33.987 30 34H20.16L20.1 34.07L9.68 45.44ZM5.92 2.64C5.00555 2.6866 4.14686 3.09377 3.53206 3.7723C2.91725 4.45083 2.59648 5.3454 2.64 6.26V27.75C2.59642 28.6656 2.91689 29.5613 3.53144 30.2414C4.14598 30.9215 5.00468 31.3308 5.92 31.38H12.32V38.66L18.94 31.38H30C30.9153 31.3308 31.774 30.9215 32.3886 30.2414C33.0031 29.5613 33.3236 28.6656 33.28 27.75V6.26C33.3235 5.3454 33.0028 4.45083 32.388 3.7723C31.7731 3.09377 30.9145 2.6866 30 2.64H5.92Z" fill="white"/>
<path d="M14.81 20.4999C14.81 19.0099 15.68 17.6599 17.25 16.2499C18.82 14.8399 19.63 13.9299 19.63 12.8899C19.6589 12.6681 19.6369 12.4427 19.5655 12.2307C19.4941 12.0187 19.3753 11.8258 19.2181 11.6667C19.0609 11.5076 18.8695 11.3864 18.6584 11.3125C18.4473 11.2385 18.2221 11.2137 18 11.2399C16.68 11.2399 16.06 11.9099 16.06 13.7999H10.94V13.2899C10.94 9.08994 14.5 6.68994 18.29 6.68994C22.38 6.68994 25.01 9.53994 25.01 12.3299C25.01 14.1399 24.17 15.5799 22.01 17.3899C20.56 18.6399 19.77 19.4899 19.69 20.4999H14.81ZM14.81 26.7499V22.2299H19.69V26.7499H14.81Z" fill="white"/>
</g>
<defs>
<clipPath id="clip0">
<rect width="35.95" height="45.44" fill="white"/>
</clipPath>
</defs>
</svg>
