<svg width="36" height="46" viewBox="0 0 36 46" fill="none" xmlns="http://www.w3.org/2000/svg">
<g clip-path="url(#clip0)">
<path d="M9.68 45.44V34H5.92C4.30729 33.9529 2.77892 33.2688 1.66941 32.0975C0.559905 30.9261 -0.0403585 29.3629 3.09874e-06 27.75V6.26C-0.0430488 4.64539 0.556015 3.07962 1.66581 1.90609C2.7756 0.732566 4.30551 0.0470872 5.92 0L30 0C30.8059 0.0142643 31.6009 0.187825 32.3394 0.510685C33.0779 0.833546 33.7452 1.29933 34.3029 1.8812C34.8606 2.46307 35.2977 3.14953 35.589 3.90104C35.8802 4.65255 36.0199 5.45427 36 6.26V27.75C36.0186 28.5549 35.8779 29.3555 35.586 30.1059C35.2942 30.8563 34.8569 31.5415 34.2993 32.1223C33.7417 32.7031 33.0749 33.168 32.3371 33.4902C31.5992 33.8125 30.805 33.9857 30 34H20.16L20.1 34.07L9.68 45.44ZM5.92 2.64C5.00555 2.6866 4.14686 3.09377 3.53206 3.7723C2.91725 4.45083 2.59648 5.3454 2.64 6.26V27.75C2.59642 28.6656 2.91689 29.5613 3.53144 30.2414C4.14598 30.9215 5.00468 31.3308 5.92 31.38H12.32V38.66L18.94 31.38H30C30.9153 31.3308 31.774 30.9215 32.3886 30.2414C33.0031 29.5613 33.3236 28.6656 33.28 27.75V6.26C33.3235 5.3454 33.0028 4.45083 32.388 3.7723C31.7731 3.09377 30.9145 2.6866 30 2.64H5.92Z" fill="white"/>
<path d="M22.6 8.42004C23.2872 8.42321 23.967 8.56256 24.6 8.83004C25.8518 9.36166 26.8484 10.3583 27.38 11.61C27.6475 12.2431 27.7868 12.9228 27.79 13.61C27.802 15.355 27.2631 17.0592 26.25 18.48C25.2878 19.887 24.1485 21.1642 22.86 22.28C21.3465 23.5526 19.7197 24.684 18 25.66C16.2566 24.7021 14.6061 23.5839 13.07 22.32C11.7867 21.1989 10.648 19.9224 9.68 18.52C8.67119 17.0971 8.13271 15.3943 8.14 13.65C8.14081 12.9616 8.28379 12.2807 8.56 11.65C8.81927 11.038 9.18873 10.4787 9.65 10C10.1331 9.52726 10.6992 9.14758 11.32 8.88004C11.9525 8.61076 12.6326 8.47133 13.32 8.47004C13.8069 8.46986 14.2915 8.53717 14.76 8.67004C15.2118 8.80639 15.645 8.99783 16.05 9.24004C16.4487 9.48239 16.8121 9.77851 17.13 10.12C17.4659 10.4368 17.7584 10.7966 18 11.19C18.4443 10.3728 19.0918 9.684 19.88 9.19004C20.285 8.94783 20.7182 8.75639 21.17 8.62004C21.6354 8.48894 22.1165 8.42166 22.6 8.42004Z" fill="white"/>
</g>
<defs>
<clipPath id="clip0">
<rect width="35.96" height="45.44" fill="white"/>
</clipPath>
</defs>
</svg>
